{"title":"Cinderella.2015.1080p.BluRay.H264.AAC-RARBG","uid":12035076,"size":2167183393,"categoryP":"video","categoryS":"hd___movies","magnet":"?xt=urn:btih:2808dc1939767bfd65fa833c2ba34587646eb78b&amp;dn=Cinderella.2015.1080p.BluRay.H264.AAC-RARBG&amp;tr=udp%3A%2F%2Ftracker.openbittorrent.com%3A80&amp;tr=udp%3A%2F%2Fopen.demonii.com%3A1337&amp;tr=udp%3A%2F%2Ftracker.coppersurfer.tk%3A6969&amp;tr=udp%3A%2F%2Fexodus.desync.com%3A6969","seeders":8,"leechers":1,"uploader":"vickey1992","files":6,"time":1434673946,"description":"Video\nID                                       : 1\nFormat                                   : AVC\nFormat/Info                              : Advanced Video Codec\nFormat profile                           : &lt;a class=&quot;__cf_email__&quot; href=&quot;/cdn-cgi/l/email-protection&quot; data-cfemail=&quot;cc84a5aba48c80f8e2fd&quot;&gt;[email&amp;#160;protected]&lt;/a&gt;&lt;script data-cfhash='f9e31' type=&quot;text/javascript&quot;&gt;\n/* &lt;![CDATA[ */!function(){try{var t=&quot;currentScript&quot;in document?document.currentScript:function(){for(var t=document.getElementsByTagName(&quot;script&quot;),e=t.length;e--;)if(t[e].getAttribute(&quot;data-cfhash&quot;))return t[e]}();if(t&amp;&amp;t.previousSibling){var e,r,n,i,c=t.previousSibling,a=c.getAttribute(&quot;data-cfemail&quot;);if(a){for(e=&quot;&quot;,r=parseInt(a.substr(0,2),16),n=2;a.length-n;n+=2)i=parseInt(a.substr(n,2),16)^r,e+=String.fromCharCode(i);e=document.createTextNode(e),c.parentNode.replaceChild(e,c)}t.parentNode.removeChild(t);}}catch(u){}}()/* ]]&gt; */&lt;/script&gt;\nFormat settings, CABAC                   : Yes\nFormat settings, ReFrames                : 4 frames\nCodec ID                                 : avc1\nCodec ID/Info                            : Advanced Video Coding\nDuration                                 : 1h 45mn\nBit rate                                 : 2 500 Kbps\nWidth                                    : 1 920 pixels\nHeight                                   : 808 pixels\nDisplay aspect ratio                     : 2.40:1\nFrame rate mode                          : Constant\nFrame rate                               : 23.976 fps\nColor space                              : YUV\nChroma subsampling                       : 4:2:0\nBit depth                                : 8 bits\nScan type                                : Progressive\nBits/(Pixel*Frame)                       : 0.067\nStream size                              : 1.84 GiB (92%)\nWriting library                          : x264 core 144 r2525M 40bb568\nEncoding settings                        : cabac=1 / ref=4 / deblock=1:-1:-1 / analyse=0x3:0x113 / me=umh / subme=9 / psy=1 / psy_rd=1.00:0.15 / mixed_ref=1 / me_range=24 / chroma_me=1 / trellis=2 / 8x8dct=1 / cqm=0 / deadzone=21,11 / fast_pskip=1 / chroma_qp_offset=-3 / threads=32 / lookahead_threads=4 / sliced_threads=0 / nr=0 / decimate=1 / interlaced=0 / bluray_compat=0 / constrained_intra=0 / bframes=3 / b_pyramid=2 / b_adapt=1 / b_bias=0 / direct=1 / weightb=1 / open_gop=0 / weightp=2 / keyint=250 / keyint_min=25 / scenecut=40 / intra_refresh=0 / rc_lookahead=50 / rc=2pass / mbtree=1 / bitrate=2500 / ratetol=1.0 / qcomp=0.60 / qpmin=0 / qpmax=69 / qpstep=4 / cplxblur=20.0 / qblur=0.5 / vbv_maxrate=31250 / vbv_bufsize=31250 / nal_hrd=none / filler=0 / ip_ratio=1.40 / aq=3:1.00\nEncoded date                             : UTC 1904-01-01 00:00:00\nTagged date                              : UTC 1904-01-01 00:00:00\n\nAudio\nID                                       : 2\nFormat                                   : AAC\nFormat/Info                              : Advanced Audio Codec\nFormat profile                           : LC\nCodec ID                                 : 40\nDuration                                 : 1h 45mn\nBit rate mode                            : Constant\nBit rate                                 : 224 Kbps\nChannel(s)                               : 2 channels\nChannel(s)_Original                      : 6 channels\nChannel positions                        : Front: L C R, Side: L R, LFE\nSampling rate                            : 48.0 KHz\nCompression mode                         : Lossy\nStream size                              : 169 MiB (8%)\nLanguage                                 : English\nEncoded date                             : UTC 1904-01-01 00:00:00\nTagged date                              : UTC 1904-01-01 00:00:00\n\nMenu #1\nID                                       : 3\nCodec ID                                 : text\nDuration                                 : 1h 45mn\nLanguage                                 : English\nEncoded date                             : UTC 1904-01-01 00:00:00\nTagged date                              : UTC 1904-01-01 00:00:00\nBit rate mode                            : CBR\n00:00:00.000                             : 00:00:00.000\n00:06:35.480                             : 00:06:35.437\n00:13:58.631                             : 00:13:58.588\n00:17:56.160                             : 00:17:56.117\n00:22:05.617                             : 00:22:05.574\n00:26:36.805                             : 00:26:36.762\n00:31:17.919                             : 00:31:17.876\n00:34:37.744                             : 00:34:37.701\n00:38:39.443                             : 00:38:39.400\n00:42:54.740                             : 00:42:54.697\n00:52:52.796                             : 00:52:52.753\n01:03:14.000                             : 01:03:13.957\n01:10:54.710                             : 01:10:54.667\n01:16:46.395                             : 01:16:46.352\n01:20:41.797                             : 01:20:41.754\n01:25:36.132                             : 01:25:36.089\n01:28:27.220                             : 01:28:27.177\n01:39:11.572                             : 01:39:11.529\n\nMenu #2\n00:00:00.043                             : 00:00:00.000\n00:06:35.480                             : 00:06:35.437\n00:13:58.631                             : 00:13:58.588\n00:17:56.160                             : 00:17:56.117\n00:22:05.617                             : 00:22:05.574\n00:26:36.805                             : 00:26:36.762\n00:31:17.919                             : 00:31:17.876\n00:34:37.744                             : 00:34:37.701\n00:38:39.443                             : 00:38:39.400\n00:42:54.740                             : 00:42:54.697\n00:52:52.796                             : 00:52:52.753\n01:03:14.000                             : 01:03:13.957\n01:10:54.710                             : 01:10:54.667\n01:16:46.395                             : 01:16:46.352\n01:20:41.797                             : 01:20:41.754\n01:25:36.132                             : 01:25:36.089\n01:28:27.220                             : 01:28:27.177\n01:39:11.572                             : 01:39:11.529","torrent":{"xt":"urn:btih:2808dc1939767bfd65fa833c2ba34587646eb78b","amp;dn":"Cinderella.2015.1080p.BluRay.H264.AAC-RARBG","amp;tr":["udp%3A%2F%2Ftracker.openbittorrent.com%3A80","udp%3A%2F%2Fopen.demonii.com%3A1337","udp%3A%2F%2Ftracker.coppersurfer.tk%3A6969","udp%3A%2F%2Fexodus.desync.com%3A6969"],"infoHash":"2808dc1939767bfd65fa833c2ba34587646eb78b","infoHashBuffer":{"type":"Buffer","data":[40,8,220,25,57,118,123,253,101,250,131,60,43,163,69,135,100,110,183,139]},"announce":[],"urlList":[]}}